<?xml version="1.0" encoding="utf-8"?>
<!-- Generator: Adobe Illustrator 17.1.0, SVG Export Plug-In . SVG Version: 6.00 Build 0)  -->
<!DOCTYPE svg PUBLIC "-//W3C//DTD SVG 1.1//EN" "http://www.w3.org/Graphics/SVG/1.1/DTD/svg11.dtd">
<svg version="1.1" id="Layer_1" xmlns="http://www.w3.org/2000/svg" xmlns:xlink="http://www.w3.org/1999/xlink" x="0px" y="0px"
	 viewBox="0 0 20 20" enable-background="new 0 0 20 20" xml:space="preserve">
<rect x="42.4" y="78.4" fill="#EF4136" width="6" height="13.8"/>
<rect x="50.3" y="72" fill="#EF4136" width="6" height="20.2"/>
<rect x="58.6" y="67.4" fill="#EF4136" width="6" height="24.8"/>
<rect x="66.5" y="62.1" fill="#878787" width="6" height="30"/>
<polygon fill="#EF4136" points="15,63.2 18.5,73.9 29.7,73.9 20.6,80.5 24.1,91.2 15,84.6 5.9,91.2 9.4,80.5 0.3,73.9 11.5,73.9 "/>
<rect x="-32" y="38.7" fill="#EF4136" width="4" height="4"/>
<rect x="-21.8" y="38.7" fill="#E6E7E8" width="4" height="4"/>
<polyline fill="#E6E7E8" points="-42.8,58 -31.6,67.2 -42.8,76.4 "/>
<path fill="#FFFFFF" d="M1.2,33.8h7.1l-2.7-2.7c1.3-1.3,3.1-2.1,5-2.1c1.9,0,3.7,0.7,5,2.1c1.3,1.3,2.1,3.1,2.1,5
	c0,1.9-0.7,3.7-2.1,5c-1.3,1.3-3.1,2.1-5,2.1c-1.9,0-3.7-0.7-5-2.1c-0.1-0.1-0.2-0.2-0.3-0.3l-1.8,1.6c1.7,2,4.3,3.2,7.1,3.2
	c5.2,0,9.5-4.3,9.5-9.5c0-5.2-4.3-9.5-9.5-9.5c-2.6,0-5,1.1-6.7,2.8l-2.8-2.8V33.8z"/>
<polyline fill="none" stroke="#FFFFFF" stroke-width="2.8538" stroke-miterlimit="10" points="41,28.7 33.5,36.2 41,43.7 "/>
<path fill="#FFFFFF" d="M78.1,42.4l-4.4-3.7c-0.5-0.4-0.9-0.6-1.3-0.6c1-1.2,1.7-2.8,1.7-4.5c0-3.8-3.1-6.9-6.9-6.9
	c-3.8,0-6.9,3.1-6.9,6.9s3.1,6.9,6.9,6.9c1.7,0,3.3-0.6,4.5-1.7c0,0.4,0.2,0.9,0.6,1.3l3.7,4.4c0.6,0.7,1.7,0.8,2.3,0.1
	C78.9,44.1,78.8,43,78.1,42.4z M67.1,38.2c-2.6,0-4.6-2.1-4.6-4.6c0-2.6,2.1-4.6,4.6-4.6c2.6,0,4.6,2.1,4.6,4.6
	C71.7,36.2,69.7,38.2,67.1,38.2z"/>
<path fill="#FFFFFF" d="M85.5,28.1h19.2v2.4H85.5V28.1z M85.5,31.7h12v2.4h-12V31.7z M85.5,38.8h12v2.4h-12V38.8z M85.5,35.2h19.2
	v2.4H85.5V35.2z M85.5,42.4h19.2v2.4H85.5V42.4z"/>
<path fill="#EF4136" d="M93.2,54.8L86.3,64h6.9l-4.6,9.2l16-11.5h-9.2l6.9-6.9H93.2z"/>
<path fill="#EF4136" d="M117.4,72c-1.1-2.4-0.5-3.7,0.3-5c1-1.4,1.2-2.8,1.2-2.8s0.8,1,0.5,2.5c1.3-1.5,1.6-3.9,1.4-4.8
	c3,2.1,4.3,6.7,2.6,10.1c9.3-5.2,2.3-13.1,1.1-14c0.4,0.9,0.5,2.4-0.3,3.1c-1.4-5.2-4.8-6.3-4.8-6.3c0.4,2.7-1.5,5.6-3.3,7.9
	c-0.1-1.1-0.1-1.8-0.7-2.8c-0.1,2-1.6,3.5-2,5.5C112.8,68,113.7,69.9,117.4,72z"/>
<polygon fill="#EF4136" points="156.1,62.9 154.1,56.1 147.5,58.1 150.3,59.7 148,63.9 142.9,61.3 142.9,61.3 141.8,60.7 
	137.7,68.9 140.6,70.4 143.3,65.2 146.4,66.9 146.4,66.9 149.4,68.4 153.2,61.3 "/>
<path fill="#414141" d="M7.7,13.3h7v1.4h-7V13.3z M7.7,9.1h7v1.4h-7V9.1z M7.7,4.9h7v1.4h-7V4.9z M5.6,4.2V7H4.9V4.9H4.2V4.2H5.6z
	 M4.9,9.9v0.5h1.4v0.7H4.2V9.6l1.4-0.7V8.4H4.2V7.7h2.1v1.6L4.9,9.9z M6.3,11.9v3.5H4.2v-0.7h1.4V14H4.2v-0.7h1.4v-0.7H4.2v-0.7H6.3
	z"/>
</svg>
