<?xml version="1.0" encoding="utf-8"?>
<!-- Generator: Adobe Illustrator 17.1.0, SVG Export Plug-In . SVG Version: 6.00 Build 0)  -->
<!DOCTYPE svg PUBLIC "-//W3C//DTD SVG 1.1//EN" "http://www.w3.org/Graphics/SVG/1.1/DTD/svg11.dtd">
<svg version="1.1" id="Layer_1" xmlns="http://www.w3.org/2000/svg" xmlns:xlink="http://www.w3.org/1999/xlink" x="0px" y="0px"
	 viewBox="0 0 19 19" enable-background="new 0 0 19 19" xml:space="preserve">
<path fill="#FFFFFF" d="M0,7.1h7.1L4.5,4.5c1.3-1.3,3.1-2.1,5-2.1c1.9,0,3.7,0.7,5,2.1c1.3,1.3,2.1,3.1,2.1,5c0,1.9-0.7,3.7-2.1,5
	c-1.3,1.3-3.1,2.1-5,2.1c-1.9,0-3.7-0.7-5-2.1c-0.1-0.1-0.2-0.2-0.3-0.3l-1.8,1.6c1.7,2,4.3,3.2,7.1,3.2c5.2,0,9.5-4.3,9.5-9.5
	C19,4.3,14.7,0,9.5,0c-2.6,0-5,1.1-6.7,2.8L0,0L0,7.1z"/>
</svg>
