<?xml version="1.0" encoding="utf-8"?>
<!-- Generator: Adobe Illustrator 17.1.0, SVG Export Plug-In . SVG Version: 6.00 Build 0)  -->
<!DOCTYPE svg PUBLIC "-//W3C//DTD SVG 1.1//EN" "http://www.w3.org/Graphics/SVG/1.1/DTD/svg11.dtd">
<svg version="1.1" id="Layer_1" xmlns="http://www.w3.org/2000/svg" xmlns:xlink="http://www.w3.org/1999/xlink" x="0px" y="0px"
	 viewBox="0 0 19 19" enable-background="new 0 0 19 19" xml:space="preserve">
<path fill="#FFFFFF" d="M17.9,15.7L13.5,12c-0.5-0.4-0.9-0.6-1.3-0.6c1-1.2,1.7-2.8,1.7-4.5c0-3.8-3.1-6.9-6.9-6.9S0,3.1,0,6.9
	s3.1,6.9,6.9,6.9c1.7,0,3.3-0.6,4.5-1.7c0,0.4,0.2,0.9,0.6,1.3l3.7,4.4c0.6,0.7,1.7,0.8,2.3,0.1C18.7,17.4,18.6,16.4,17.9,15.7z
	 M6.9,11.6c-2.6,0-4.6-2.1-4.6-4.6s2.1-4.6,4.6-4.6s4.6,2.1,4.6,4.6S9.5,11.6,6.9,11.6z"/>
</svg>
