<?xml version="1.0" encoding="utf-8"?>
<!-- Generator: Adobe Illustrator 17.1.0, SVG Export Plug-In . SVG Version: 6.00 Build 0)  -->
<!DOCTYPE svg PUBLIC "-//W3C//DTD SVG 1.1//EN" "http://www.w3.org/Graphics/SVG/1.1/DTD/svg11.dtd">
<svg version="1.1" id="Layer_1" xmlns="http://www.w3.org/2000/svg" xmlns:xlink="http://www.w3.org/1999/xlink" x="0px" y="0px"
	 viewBox="0 0 19.2 19.2" enable-background="new 0 0 19.2 19.2" xml:space="preserve">
<path fill="#EF4136" d="M6.2,18.2c-1.1-2.4-0.5-3.7,0.3-5c1-1.4,1.2-2.8,1.2-2.8s0.8,1,0.5,2.5C9.5,11.4,9.8,9,9.6,8.1
	c3,2.1,4.3,6.7,2.6,10.1c9.3-5.2,2.3-13.1,1.1-14c0.4,0.9,0.5,2.4-0.3,3.1C11.5,2.1,8.1,1,8.1,1c0.4,2.7-1.5,5.6-3.3,7.9
	C4.8,7.8,4.7,7,4.2,6c-0.1,2-1.6,3.5-2,5.5C1.6,14.2,2.6,16.1,6.2,18.2z"/>
</svg>
